FILE "Ambient Vol5 Hall of Idols Main.ogg" BINARY
  TRACK 01 AUDIO
    TITLE "Tempo: 128.0"
    INDEX 01 00:00:00
  TRACK 02 AUDIO
    TITLE "turn down slappy hard hitting sample"
    INDEX 01 00:00:00
  TRACK 03 AUDIO
    TITLE "Tempo: 128.0"
    INDEX 01 01:33:56
